<svg width="133" height="133" viewBox="0 0 133 133" fill="none" xmlns="http://www.w3.org/2000/svg">
<path d="M124.688 99.75H108.062V83.125H99.75V99.75H83.125V108.062H99.75V124.688H108.062V108.062H124.688V99.75Z" fill="#C4C4C4"/>
<path d="M66.5 116.375H33.25V16.6249H66.5V41.5624C66.5066 43.765 67.3845 45.8755 68.9419 47.433C70.4994 48.9905 72.6099 49.8684 74.8125 49.8749H99.75V66.4999H108.063V41.5624C108.077 41.0162 107.973 40.4733 107.758 39.971C107.543 39.4688 107.221 39.0192 106.816 38.6531L77.7219 9.55932C77.356 9.15344 76.9064 8.83177 76.4041 8.61651C75.9018 8.40124 75.3588 8.2975 74.8125 8.31245H33.25C31.0474 8.31903 28.9369 9.19692 27.3794 10.7544C25.822 12.3119 24.9441 14.4224 24.9375 16.6249V116.375C24.9441 118.578 25.822 120.688 27.3794 122.245C28.9369 123.803 31.0474 124.681 33.25 124.687H66.5V116.375ZM74.8125 18.2874L98.0875 41.5624H74.8125V18.2874Z" fill="#C4C4C4"/>
</svg>
